<svg width="24" height="24" viewBox="0 0 24 24" fill="none" xmlns="http://www.w3.org/2000/svg">
<path d="M15 22H3V5C3 2.518 3.518 2 6 2H12C14.482 2 15 2.518 15 5V22ZM15 22V8H18C20.482 8 21 8.518 21 11V22H15ZM8 6H10M8 9H10M8 12H10" stroke="#4B5563" stroke-width="1.5" stroke-linecap="round" stroke-linejoin="round"/>
<path d="M11.5 22V18C11.5 17.057 11.5 16.586 11.207 16.293C10.914 16 10.443 16 9.5 16H8.5C7.557 16 7.086 16 6.793 16.293C6.5 16.586 6.5 17.057 6.5 18V22" stroke="#4B5563" stroke-width="1.5" stroke-linecap="round" stroke-linejoin="round"/>
</svg>
