<svg width="20" height="20" viewBox="0 0 20 20" fill="none" xmlns="http://www.w3.org/2000/svg">
<path d="M12.5 18.3333V15C12.6159 13.9561 12.3166 12.9084 11.6666 12.0833C14.1666 12.0833 16.6666 10.4167 16.6666 7.5C16.7333 6.45834 16.4416 5.43334 15.8333 4.58334C16.0666 3.62501 16.0666 2.62501 15.8333 1.66667C15.8333 1.66667 15 1.66667 13.3333 2.91667C11.1333 2.50001 8.86665 2.50001 6.66665 2.91667C4.99998 1.66667 4.16665 1.66667 4.16665 1.66667C3.91665 2.62501 3.91665 3.62501 4.16665 4.58334C3.55969 5.42982 3.26517 6.46064 3.33332 7.5C3.33332 10.4167 5.83332 12.0833 8.33332 12.0833C8.00832 12.4917 7.76665 12.9583 7.62498 13.4583C7.48332 13.9583 7.44165 14.4833 7.49998 15V18.3333" stroke="#4B5563" stroke-width="1.66667" stroke-linecap="round" stroke-linejoin="round"/>
<path d="M7.49999 15C3.74166 16.6667 3.33332 13.3333 1.66666 13.3333" stroke="#4B5563" stroke-width="1.66667" stroke-linecap="round" stroke-linejoin="round"/>
</svg>
