<svg width="12" height="12" viewBox="0 0 12 12" fill="none" xmlns="http://www.w3.org/2000/svg">
<g clip-path="url(#clip0_25_61)">
<path d="M8.5 1H3.5C2.11929 1 1 2.11929 1 3.5V8.5C1 9.88071 2.11929 11 3.5 11H8.5C9.88071 11 11 9.88071 11 8.5V3.5C11 2.11929 9.88071 1 8.5 1Z" stroke="white" stroke-linecap="round" stroke-linejoin="round"/>
<path d="M8.75 3.25H8.755M8 5.685C8.0617 6.10112 7.99063 6.52611 7.79688 6.89951C7.60313 7.27291 7.29657 7.57571 6.92081 7.76484C6.54505 7.95397 6.11922 8.0198 5.70389 7.95297C5.28856 7.88613 4.90488 7.69004 4.60742 7.39258C4.30996 7.09512 4.11386 6.71144 4.04703 6.29611C3.9802 5.88078 4.04603 5.45495 4.23516 5.07919C4.42429 4.70343 4.72709 4.39687 5.10049 4.20312C5.47389 4.00937 5.89888 3.93829 6.315 4C6.73946 4.06294 7.13242 4.26073 7.43585 4.56415C7.73927 4.86757 7.93706 5.26054 8 5.685Z" stroke="white" stroke-linecap="round" stroke-linejoin="round"/>
</g>
<defs>
<clipPath id="clip0_25_61">
<rect width="12" height="12" fill="white"/>
</clipPath>
</defs>
</svg>
