<svg width="21" height="20" viewBox="0 0 21 20" fill="none" xmlns="http://www.w3.org/2000/svg">
<path d="M13.6666 6.66667C14.9927 6.66667 16.2645 7.19346 17.2022 8.13114C18.1399 9.06882 18.6666 10.3406 18.6666 11.6667V17.5H15.3333V11.6667C15.3333 11.2246 15.1577 10.8007 14.8451 10.4882C14.5326 10.1756 14.1087 10 13.6666 10C13.2246 10 12.8007 10.1756 12.4881 10.4882C12.1756 10.8007 12 11.2246 12 11.6667V17.5H8.66664V11.6667C8.66664 10.3406 9.19342 9.06882 10.1311 8.13114C11.0688 7.19346 12.3406 6.66667 13.6666 6.66667ZM1.99997 7.50001H5.3333V17.5H1.99997V7.50001Z" stroke="#4B5563" stroke-width="1.66667" stroke-linecap="round" stroke-linejoin="round"/>
<path d="M3.66664 5.00001C4.58711 5.00001 5.3333 4.25381 5.3333 3.33334C5.3333 2.41286 4.58711 1.66667 3.66664 1.66667C2.74616 1.66667 1.99997 2.41286 1.99997 3.33334C1.99997 4.25381 2.74616 5.00001 3.66664 5.00001Z" stroke="#4B5563" stroke-width="1.66667" stroke-linecap="round" stroke-linejoin="round"/>
</svg>
