<svg width="20" height="20" viewBox="0 0 20 20" fill="none" xmlns="http://www.w3.org/2000/svg">
<g clip-path="url(#clip0_27_377)">
<path d="M14.3275 7.9625C13.2742 3.3125 10.7842 1.78417 10.5167 1.2C10.2833 0.871667 10.075 0.405 9.90418 0C9.87418 0.4125 9.85834 0.570833 9.46834 0.986667C8.86584 1.45833 5.77001 4.055 5.51834 9.33667C5.28334 14.2633 9.07668 17.1992 9.59168 17.5733L9.65001 17.615C9.75715 18.4081 9.84883 19.2033 9.92501 20H10.3258C10.4216 19.1402 10.5635 18.2862 10.7508 17.4417C11.0983 17.195 11.2542 17.0558 11.4592 16.8642C12.4301 15.9661 13.2016 14.8743 13.724 13.6593C14.2464 12.4444 14.5079 11.1333 14.4917 9.81083C14.5 9.1325 14.4058 8.42583 14.3275 7.9625ZM9.88084 14.7917C9.88084 14.7917 9.88084 7.8825 10.11 7.88333C10.2875 7.88333 10.5183 16.7958 10.5183 16.7958C10.2008 16.7583 9.88084 15.3292 9.88084 14.7917Z" fill="#4B5563"/>
</g>
<defs>
<clipPath id="clip0_27_377">
<rect width="20" height="20" fill="white"/>
</clipPath>
</defs>
</svg>
