<svg width="20" height="20" viewBox="0 0 20 20" fill="none" xmlns="http://www.w3.org/2000/svg">
<path d="M9.99832 20C9.73082 20 9.46415 19.93 9.22999 19.7942L6.78332 18.3467C6.41832 18.1425 6.59665 18.07 6.71665 18.0275C7.20415 17.8583 7.30249 17.8192 7.82332 17.5242C7.87749 17.4933 7.94915 17.505 8.00499 17.5383L9.88499 18.6542C9.91989 18.6727 9.9588 18.6824 9.99832 18.6824C10.0378 18.6824 10.0768 18.6727 10.1117 18.6542L17.4408 14.4242C17.4748 14.4034 17.5029 14.3743 17.5225 14.3395C17.542 14.3048 17.5524 14.2657 17.5525 14.2258V5.7675C17.5527 5.72685 17.5422 5.68686 17.5222 5.65149C17.5022 5.61612 17.4733 5.58659 17.4383 5.56583L10.1125 1.33917C10.0779 1.32005 10.0391 1.31003 9.99957 1.31003C9.96007 1.31003 9.92122 1.32005 9.88665 1.33917L2.56249 5.56667C2.52735 5.58715 2.49818 5.61645 2.47786 5.65168C2.45754 5.68691 2.44678 5.72683 2.44665 5.7675V14.2258C2.44681 14.2658 2.45763 14.3051 2.47799 14.3395C2.49835 14.3739 2.52752 14.4023 2.56249 14.4217L4.56999 15.5817C5.65915 16.1267 6.32665 15.485 6.32665 14.84V6.48917C6.32665 6.37083 6.42165 6.27833 6.53999 6.27833H7.46915C7.58499 6.27833 7.68165 6.37167 7.68165 6.48917V14.84C7.68165 16.2942 6.88999 17.1275 5.51165 17.1275C5.08832 17.1275 4.75415 17.1275 3.82332 16.6683L1.89999 15.5625C1.66643 15.4261 1.47263 15.231 1.33784 14.9965C1.20305 14.762 1.13197 14.4963 1.13165 14.2258V5.7675C1.13165 5.21833 1.42582 4.705 1.89999 4.43167L9.22915 0.196667C9.46536 0.0678597 9.73011 0.000366211 9.99915 0.000366211C10.2682 0.000366211 10.5329 0.0678597 10.7692 0.196667L18.0975 4.43167C18.5725 4.70583 18.8675 5.21833 18.8675 5.7675V14.2258C18.867 14.4965 18.7957 14.7623 18.6606 14.9968C18.5255 15.2313 18.3314 15.4263 18.0975 15.5625L10.7692 19.7942C10.5358 19.93 10.27 20 9.99832 20ZM15.9158 11.6608C15.9158 10.0775 14.8458 9.65583 12.5933 9.35833C10.3175 9.0575 10.0858 8.90167 10.0858 8.36917C10.0858 7.92917 10.2817 7.34167 11.9675 7.34167C13.4733 7.34167 14.0283 7.66583 14.2567 8.68083C14.2671 8.72773 14.2931 8.76969 14.3305 8.79983C14.3679 8.82997 14.4145 8.84648 14.4625 8.84667H15.4133C15.4424 8.84638 15.471 8.84025 15.4977 8.82866C15.5243 8.81706 15.5483 8.80023 15.5683 8.77917C15.5883 8.75722 15.6036 8.7314 15.6132 8.7033C15.6228 8.6752 15.6265 8.64543 15.6242 8.61583C15.4767 6.8675 14.315 6.0525 11.9675 6.0525C9.87749 6.0525 8.63082 6.93417 8.63082 8.41333C8.63082 10.0175 9.87082 10.4608 11.8767 10.6592C14.2767 10.8942 14.4625 11.245 14.4625 11.7167C14.4625 12.5358 13.805 12.885 12.2608 12.885C10.3217 12.885 9.89499 12.3983 9.75165 11.4333C9.74369 11.3832 9.71806 11.3376 9.67939 11.3047C9.64072 11.2719 9.59157 11.2539 9.54082 11.2542H8.59332C8.56547 11.2537 8.53781 11.2589 8.51198 11.2693C8.48616 11.2797 8.46268 11.2952 8.44295 11.3149C8.42321 11.3345 8.40762 11.3579 8.39709 11.3837C8.38657 11.4095 8.38131 11.4371 8.38165 11.465C8.38165 12.7 9.05332 14.1717 12.2608 14.1717C14.5842 14.1725 15.9158 13.2583 15.9158 11.6608Z" fill="#4B5563"/>
</svg>
