<svg width="20" height="20" viewBox="0 0 20 20" fill="none" xmlns="http://www.w3.org/2000/svg">
<path d="M5.83334 15V12.9167M5.83334 12.9167V11.6667C5.83334 11.2742 5.83334 11.0775 5.96168 10.955C6.09001 10.8333 6.29584 10.8333 6.70834 10.8333H7.29168C7.89584 10.8333 8.38584 11.3 8.38584 11.875C8.38584 12.45 7.89584 12.9167 7.29168 12.9167H5.83334ZM17.5 10.8333H16.4067C15.7192 10.8333 15.375 10.8333 15.1617 11.0367C14.9483 11.24 14.9483 11.5675 14.9483 12.2225V12.9167M14.9483 12.9167V15M14.9483 12.9167H16.7708M13.125 12.9167C13.125 14.0667 12.1458 15 10.9375 15C10.665 15 10.5292 15 10.4267 14.9442C10.1842 14.8108 10.2083 14.54 10.2083 14.3058V11.5275C10.2083 11.2933 10.1833 11.0225 10.4267 10.8892C10.5283 10.8333 10.665 10.8333 10.9375 10.8333C12.1458 10.8333 13.125 11.7667 13.125 12.9167Z" stroke="white" stroke-width="1.25" stroke-linecap="round" stroke-linejoin="round"/>
<path d="M12.5 18.3333H8.93917C6.2225 18.3333 4.8625 18.3333 3.91917 17.6683C3.65071 17.4801 3.41075 17.2541 3.20667 16.9975C2.5 16.1092 2.5 14.8308 2.5 12.2725V10.1517C2.5 7.6825 2.5 6.4475 2.89083 5.46167C3.51917 3.87583 4.8475 2.62583 6.5325 2.03417C7.57917 1.66667 8.89 1.66667 11.515 1.66667C13.0133 1.66667 13.7633 1.66667 14.3617 1.87667C15.3242 2.215 16.0833 2.92917 16.4425 3.835C16.6667 4.39833 16.6667 5.10417 16.6667 6.515V8.33333" stroke="white" stroke-width="1.25" stroke-linecap="round" stroke-linejoin="round"/>
<path d="M2.5 10C2.5 9.26336 2.79263 8.55689 3.31351 8.03601C3.83439 7.51513 4.54086 7.2225 5.2775 7.2225C5.8325 7.2225 6.48667 7.31917 7.02583 7.175C7.26142 7.1116 7.47621 6.98738 7.64865 6.81479C7.82109 6.6422 7.94513 6.42731 8.00833 6.19167C8.1525 5.6525 8.05583 4.99833 8.05583 4.44333C8.05605 3.70684 8.34878 3.00059 8.86964 2.47988C9.3905 1.95918 10.0968 1.66667 10.8333 1.66667" stroke="white" stroke-width="1.25" stroke-linecap="round" stroke-linejoin="round"/>
</svg>
