<svg width="20" height="20" viewBox="0 0 20 20" fill="none" xmlns="http://www.w3.org/2000/svg">
<g clip-path="url(#clip0_27_380)">
<path d="M19.6333 12.2692C19.622 12.2339 19.606 12.2002 19.5858 12.1692C19.4692 11.9497 19.1894 11.8855 18.7467 11.9767C17.3683 12.26 16.835 12.085 16.6417 11.96C17.76 10.2533 18.6792 8.19166 19.1758 6.26832C19.4025 5.39332 19.8408 3.33249 19.2775 2.32666C19.2416 2.25758 19.1998 2.19177 19.1525 2.12999C18.0775 0.758325 16.5 0.0208249 14.5917 0.000824931C13.3458 -0.0125084 12.2833 0.289158 11.995 0.399992C11.8523 0.373473 11.7089 0.350687 11.565 0.331658C11.2041 0.266365 10.8384 0.230967 10.4717 0.225825C9.48666 0.209992 8.63582 0.445825 7.92999 0.925825C7.21666 0.658325 3.94082 -0.445008 1.91332 0.991658C0.779158 1.79416 0.257491 3.22749 0.358324 5.25332C0.392491 5.93499 0.780824 8.03166 1.39416 10.04C1.77749 11.2955 2.17555 12.2905 2.58832 13.025C3.04944 13.8544 3.52555 14.3517 4.01666 14.5167C4.38999 14.64 4.96082 14.6358 5.56499 13.9092C6.08908 13.2823 6.62955 12.6693 7.18582 12.0708C7.54832 12.2667 7.94082 12.3725 8.34416 12.385V12.3883C8.27404 12.4718 8.20542 12.5566 8.13832 12.6425C7.85582 13.0008 7.79666 13.0758 6.88832 13.2633C6.62999 13.3167 5.94332 13.4575 5.93332 13.9392C5.93185 14.0354 5.95818 14.13 6.00916 14.2117C6.19832 14.5642 6.77749 14.72 6.85499 14.7392C7.96749 15.0167 8.94249 14.8158 9.66499 14.1733C9.65082 16.0325 9.72916 17.855 9.95249 18.4133C10.1367 18.8742 10.5875 20 12.0108 20C12.2192 20.0005 12.4494 19.9744 12.7017 19.9217C14.1867 19.6033 14.8317 18.9467 15.0808 17.5C15.2058 16.775 15.4158 15.1042 15.53 14.0825C15.5442 14.0242 15.56 13.9825 15.5775 13.9692C15.5775 13.9692 15.6358 13.9292 15.9333 13.9942L15.97 14L16.1817 14.0183L16.1942 14.0192C16.9 14.0517 17.7867 13.9008 18.3033 13.6608C18.84 13.4108 19.8092 12.8 19.6333 12.2692ZM1.97499 9.89666C1.35499 7.86749 0.993324 5.82582 0.964991 5.25416C0.874158 3.44416 1.31249 2.18499 2.26666 1.50999C3.79749 0.427492 6.29999 1.05999 7.35666 1.40166L7.34832 1.40999C5.66249 3.11166 5.70249 6.02166 5.70832 6.19999C5.70832 6.26832 5.71332 6.36582 5.72166 6.49999C5.74999 6.98832 5.80499 7.89999 5.65999 8.93166C5.52666 9.88999 5.82166 10.8283 6.47082 11.5058C6.53749 11.5758 6.60749 11.6417 6.68082 11.7033C6.39166 12.0125 5.76416 12.6975 5.09499 13.5017C4.62166 14.07 4.29499 13.9608 4.18832 13.925C3.86166 13.8167 3.51082 13.4358 3.15582 12.8233C2.75582 12.1242 2.35332 11.13 1.97666 9.89666M6.98249 14.1367C6.85588 14.1051 6.73459 14.0551 6.62249 13.9883C6.69666 13.9558 6.81999 13.9133 7.02499 13.8717C8.09499 13.6508 8.25999 13.4958 8.62082 13.0383C8.71831 12.9116 8.82032 12.7885 8.92666 12.6692C8.95384 12.6372 8.97476 12.6005 8.98832 12.5608C9.12999 12.435 9.21499 12.4692 9.35166 12.5258C9.48166 12.58 9.60832 12.7425 9.65999 12.9217C9.68499 13.0067 9.71166 13.1675 9.62249 13.2925C8.86916 14.3475 7.77082 14.3342 6.98249 14.1367ZM8.72749 10.8133L8.68416 10.93C8.57332 11.2275 8.46999 11.5042 8.40582 11.7667C7.84999 11.765 7.30832 11.5267 6.89749 11.0975C6.37416 10.5517 6.13666 9.79249 6.24499 9.01416C6.39749 7.92416 6.34166 6.97499 6.31166 6.46499L6.30082 6.28166C6.54749 6.06332 7.68916 5.45166 8.50332 5.63832C8.87499 5.72332 9.10166 5.97666 9.19499 6.41166C9.68249 8.66499 9.25999 9.60332 8.91999 10.3583C8.85113 10.5078 8.7872 10.6596 8.72832 10.8133M14.865 14.6233C14.8517 14.7711 14.8344 14.9367 14.8133 15.12L14.6917 15.485C14.6826 15.5142 14.6775 15.5444 14.6767 15.575C14.6717 15.9708 14.6317 16.1158 14.5808 16.3C14.4981 16.5871 14.4478 16.8825 14.4308 17.1808C14.3392 18.3592 13.6992 19.0367 12.4167 19.3108C11.1542 19.5817 10.93 18.8975 10.7333 18.2933C10.7127 18.2299 10.6911 18.1668 10.6683 18.1042C10.4892 17.6158 10.51 16.9275 10.5375 15.975C10.5508 15.5075 10.5167 14.3908 10.2625 13.77C10.2658 13.5255 10.2711 13.2778 10.2783 13.0267C10.2784 12.9948 10.2739 12.9631 10.265 12.9325C10.2559 12.8741 10.2436 12.8162 10.2283 12.7592C10.1267 12.4025 9.87832 12.1042 9.57832 11.98C9.45999 11.9308 9.24249 11.8408 8.98082 11.9075C9.03666 11.6775 9.13332 11.4183 9.23832 11.1367L9.28249 11.0183C9.33249 10.885 9.39416 10.7475 9.45999 10.6017C9.81499 9.81166 10.3017 8.72999 9.77332 6.28666C9.57582 5.37166 8.91499 4.92499 7.91332 5.02832C7.31332 5.09082 6.76332 5.33332 6.48916 5.47166C6.43418 5.49954 6.37973 5.52843 6.32582 5.55832C6.40249 4.63666 6.69166 2.91332 7.77249 1.82332C7.85267 1.74239 7.93695 1.66563 8.02499 1.59332C8.06882 1.58502 8.11015 1.56678 8.14582 1.53999C8.77249 1.06499 9.55832 0.831658 10.4808 0.845825C10.823 0.85138 11.1492 0.87388 11.4592 0.913325C13.0758 1.20916 14.1625 2.11916 14.8225 2.89916C15.5008 3.70082 15.8683 4.50832 16.015 4.94416C14.9125 4.83249 14.1625 5.04999 13.7817 5.59416C12.955 6.77582 14.235 9.07082 14.85 10.1742C14.9625 10.3758 15.06 10.5508 15.0908 10.6242C15.2908 11.11 15.55 11.4342 15.7392 11.6708C15.7975 11.7433 15.8542 11.8133 15.8967 11.875C15.5633 11.9717 14.9633 12.1942 15.0175 13.3058C14.9968 13.5325 14.9735 13.7589 14.9475 13.985C14.9092 14.1583 14.89 14.3683 14.865 14.6233ZM15.6058 13.2725C15.5725 12.5792 15.8308 12.5067 16.1033 12.4308L16.2158 12.3967C16.2506 12.4284 16.2879 12.4571 16.3275 12.4825C16.8025 12.7958 17.6467 12.8333 18.8333 12.5942C18.665 12.7417 18.4008 12.9275 18.0392 13.095C17.6975 13.2533 17.1258 13.3725 16.5833 13.3983C15.9833 13.4267 15.6783 13.3317 15.6058 13.2725ZM16.0808 5.54666C16.0717 5.82645 16.0425 6.10523 15.9933 6.38082C15.9475 6.67916 15.9 6.98749 15.8875 7.36166C15.8758 7.72499 15.9208 8.10332 15.965 8.46999C16.0542 9.20916 16.145 9.96999 15.7925 10.7208C15.7346 10.6168 15.6823 10.5097 15.6358 10.4C15.5531 10.2247 15.4627 10.0532 15.365 9.88582C14.8517 8.96582 13.6508 6.81082 14.265 5.93249C14.5817 5.47999 15.3833 5.46082 16.0808 5.54666ZM16.2708 11.3908L16.2 11.3017L16.1708 11.265C16.7758 10.265 16.6575 9.27582 16.5517 8.39916C16.5083 8.03916 16.4683 7.69916 16.4783 7.38082C16.4892 7.04166 16.5333 6.75166 16.5767 6.47082C16.63 6.12499 16.685 5.76749 16.6692 5.34582C16.6809 5.29392 16.6843 5.24046 16.6792 5.18749C16.6408 4.78249 16.1792 3.57249 15.2375 2.47666C14.6238 1.75333 13.8593 1.17309 12.9975 0.776658C13.5521 0.663586 14.1174 0.611609 14.6833 0.621658C16.3933 0.659992 17.7458 1.29999 18.7033 2.52416C18.7236 2.55079 18.7422 2.57862 18.7592 2.60749C19.3617 3.73749 18.53 7.83666 16.2708 11.3908ZM8.92332 6.29416C8.90249 6.44416 8.66499 6.64666 8.40582 6.64666L8.33832 6.64166C8.1692 6.61174 8.01815 6.51771 7.91666 6.37916C7.87832 6.32916 7.81666 6.23082 7.82832 6.14166C7.83202 6.11675 7.84081 6.09287 7.85415 6.07151C7.86748 6.05014 7.88507 6.03176 7.90582 6.01749C8.00416 5.94332 8.19916 5.91582 8.41416 5.94582C8.67749 5.98249 8.94916 6.10666 8.92249 6.29416M15.5308 5.95166C15.54 6.01832 15.49 6.11832 15.4033 6.20999C15.3137 6.30783 15.1941 6.37319 15.0633 6.39582L15.0008 6.39999C14.7567 6.39999 14.55 6.20499 14.5342 6.09082C14.5142 5.94332 14.7542 5.83249 15.0008 5.79749C15.2492 5.76249 15.5108 5.80499 15.5308 5.95166Z" fill="#4B5563"/>
</g>
<defs>
<clipPath id="clip0_27_380">
<rect width="20" height="20" fill="white"/>
</clipPath>
</defs>
</svg>
