<svg width="20" height="20" viewBox="0 0 20 20" fill="none" xmlns="http://www.w3.org/2000/svg">
<g clip-path="url(#clip0_27_368)">
<path d="M11.8583 10.0033C11.8583 10.4974 11.6621 10.9712 11.3129 11.3206C10.9636 11.67 10.4899 11.8665 9.99583 11.8667C9.50165 11.8667 9.0277 11.6704 8.67826 11.3209C8.32881 10.9715 8.1325 10.4975 8.1325 10.0033C8.1325 9.5093 8.3287 9.03548 8.67796 8.68606C9.02723 8.33664 9.50096 8.14023 9.995 8.14001C10.4892 8.14001 10.9631 8.33632 11.3126 8.68577C11.662 9.03521 11.8583 9.50916 11.8583 10.0033ZM14.065 1.09501C12.9433 1.09501 11.4758 1.89501 9.99167 3.28001C8.50833 1.90251 7.04 1.11168 5.91917 1.11168C5.5775 1.11168 5.26667 1.18918 4.9975 1.34334C3.85167 2.00418 3.595 4.06334 4.18667 6.64751C1.65 7.43084 0 8.68334 0 10.0033C0 11.3283 1.65833 12.5842 4.2025 13.3617C3.61583 15.9558 3.8775 18.0183 5.02583 18.6783C5.2925 18.8342 5.60083 18.9075 5.94417 18.9075C7.065 18.9075 8.53333 18.1075 10.0175 16.7208C11.5008 18.0992 12.9692 18.89 14.09 18.89C14.4317 18.89 14.7425 18.815 15.0117 18.6608C16.1567 18.0008 16.4142 15.9417 15.8225 13.3567C18.35 12.58 20 11.325 20 10.0033C20 8.67834 18.3417 7.42251 15.7975 6.64334C16.3842 4.05168 16.1225 1.98751 14.9742 1.32668C14.6965 1.17067 14.3834 1.09075 14.065 1.09501ZM14.0608 2.00334V2.00834C14.2483 2.00834 14.3992 2.04501 14.5258 2.11418C15.0808 2.43251 15.3217 3.64334 15.1342 5.20084C15.0892 5.58418 15.0158 5.98834 14.9258 6.40084C14.0737 6.19472 13.2087 6.04605 12.3367 5.95584C11.8171 5.23935 11.2506 4.55813 10.6408 3.91668C11.9675 2.68334 13.2133 2.00668 14.0617 2.00418L14.0608 2.00334ZM5.91917 2.02001C6.7625 2.02001 8.01417 2.69334 9.34417 3.92001C8.7725 4.52001 8.2025 5.20084 7.66083 5.95501C6.78686 6.04482 5.92009 6.19462 5.06667 6.40334C4.97717 6.01252 4.90654 5.61762 4.855 5.22001C4.66333 3.66334 4.9 2.45334 5.45 2.13084C5.60833 2.05584 5.78333 2.02418 5.91917 2.02001ZM9.9875 4.56168C10.3675 4.95279 10.7453 5.38723 11.1208 5.86501C10.7542 5.84834 10.3792 5.83668 10 5.83668C9.61611 5.83612 9.23833 5.84557 8.86667 5.86501C9.23333 5.38834 9.6125 4.95251 9.9875 4.56168ZM10 6.75001C10.6167 6.75001 11.2308 6.77834 11.835 6.82751C12.1739 7.31307 12.5025 7.82973 12.8208 8.37751C13.1303 8.9114 13.4131 9.45195 13.6692 9.99918C13.4125 10.545 13.1308 11.0908 12.825 11.6242C12.5083 12.1742 12.1808 12.6975 11.8417 13.1825C10.6185 13.2897 9.38839 13.2911 8.165 13.1867C7.81543 12.6836 7.48654 12.1665 7.17917 11.6367C6.86972 11.1028 6.58694 10.5622 6.33083 10.015C6.58818 9.4601 6.86984 8.9168 7.175 8.38668C7.49167 7.83668 7.81917 7.31501 8.15833 6.83001C8.77072 6.77563 9.38521 6.74838 10 6.74834V6.75001ZM6.97083 6.96168C6.77083 7.27584 6.57083 7.59751 6.38417 7.92834C6.1975 8.25334 6.02111 8.57945 5.855 8.90668C5.63417 8.36001 5.44667 7.81501 5.29167 7.28418C5.825 7.15918 6.3875 7.04751 6.97083 6.96168ZM13.0208 6.96168C13.6008 7.04668 14.1581 7.15418 14.6925 7.28418C14.5425 7.81084 14.355 8.35251 14.1425 8.89501C13.8024 8.23171 13.4283 7.58641 13.0217 6.96168H13.0208ZM15.5733 7.52418C15.9772 7.64973 16.3592 7.78807 16.7192 7.93918C18.1625 8.55584 19.0958 9.36251 19.0958 10.0025C19.0917 10.6425 18.1583 11.4525 16.715 12.065C16.365 12.215 15.9817 12.35 15.5858 12.4758C15.3355 11.6287 15.0292 10.7991 14.6692 9.99251C15.0442 9.14501 15.3442 8.31751 15.5733 7.52251V7.52418ZM4.41083 7.52751C4.6425 8.32751 4.94833 9.15834 5.3275 10.0108C4.96962 10.8125 4.66724 11.6378 4.4225 12.4808C4.01917 12.3558 3.63583 12.2158 3.28083 12.0642C1.8375 11.45 0.904167 10.6425 0.904167 10.0025C0.904167 9.36251 1.8375 8.55084 3.28083 7.93918C3.63083 7.78918 4.01417 7.65418 4.41083 7.52751ZM14.1425 11.0942C14.3633 11.6417 14.5508 12.1875 14.7058 12.7175C14.1725 12.8483 13.6092 12.9592 13.0258 13.0425C13.4318 12.4128 13.8039 11.7625 14.1425 11.0942ZM5.855 11.1108C6.02167 11.4375 6.19667 11.7633 6.38833 12.09C6.58 12.4156 6.77583 12.7331 6.97583 13.0425C6.41393 12.9612 5.85611 12.8539 5.30417 12.7208C5.45417 12.1958 5.6425 11.6525 5.85417 11.11L5.855 11.1108ZM14.9333 13.6C15.0267 14.0108 15.1 14.4067 15.145 14.7858C15.3367 16.3425 15.1 17.5525 14.55 17.8758C14.4275 17.9508 14.2683 17.9825 14.0808 17.9825C13.2375 17.9825 11.9858 17.31 10.6558 16.0825C11.2275 15.4825 11.7975 14.8025 12.3392 14.0492C13.2617 13.9508 14.1342 13.8 14.9333 13.6ZM5.075 13.6083C5.875 13.8033 6.74667 13.9542 7.66417 14.0517C8.21417 14.8058 8.785 15.4908 9.36 16.09C8.03083 17.3258 6.78333 18.0025 5.935 18.0025C5.7748 18.0033 5.61675 17.9656 5.47417 17.8925C4.91917 17.5758 4.67833 16.3642 4.86583 14.8067C4.91083 14.4233 4.985 14.02 5.075 13.6083ZM8.875 14.1417C9.24222 14.1595 9.61583 14.1689 9.99583 14.17C10.3797 14.1706 10.7575 14.1611 11.1292 14.1417C10.7625 14.6183 10.3833 15.0542 10.0083 15.4458C9.62833 15.0536 9.25056 14.6189 8.875 14.1417Z" fill="#4B5563"/>
</g>
<defs>
<clipPath id="clip0_27_368">
<rect width="20" height="20" fill="white"/>
</clipPath>
</defs>
</svg>
