<svg width="20" height="20" viewBox="0 0 20 20" fill="none" xmlns="http://www.w3.org/2000/svg">
<g clip-path="url(#clip0_27_365)">
<path d="M0.9375 0C0.418333 0 0 0.418333 0 0.9375V19.0625C0 19.5817 0.418333 20 0.9375 20H19.0625C19.5817 20 20 19.5817 20 19.0625V0.9375C20 0.418333 19.5817 0 19.0625 0H0.9375ZM15.4067 8.125C15.9167 8.125 16.3686 8.15583 16.7625 8.2175C17.1342 8.27333 17.4991 8.3683 17.8508 8.50083V10.5492C17.6819 10.4326 17.5025 10.3319 17.315 10.2483C17.1216 10.161 16.9219 10.0886 16.7175 10.0317C16.3304 9.92427 15.9309 9.86824 15.5292 9.865C15.2792 9.865 15.0517 9.88889 14.8467 9.93667C14.664 9.97574 14.4887 10.0438 14.3275 10.1383C14.1864 10.225 14.0772 10.3289 14 10.45C13.9226 10.572 13.8821 10.7138 13.8833 10.8583C13.8833 11.0217 13.9267 11.1686 14.0133 11.2992C14.1 11.4292 14.2231 11.5525 14.3825 11.6692C14.6217 11.8442 14.735 11.8992 14.9625 12.0108C15.1903 12.1236 15.4475 12.2392 15.7342 12.3575C16.1258 12.5219 16.4775 12.6964 16.7892 12.8808C17.1008 13.0658 17.3683 13.275 17.5917 13.5083C17.815 13.7406 17.9856 14.0064 18.1033 14.3058C18.2217 14.6047 18.2811 14.9528 18.2817 15.35C18.2817 15.8978 18.1781 16.3578 17.9708 16.73C17.7699 17.0972 17.4799 17.4081 17.1275 17.6342C16.7483 17.8742 16.3283 18.0425 15.8883 18.1308C15.4161 18.2308 14.9189 18.2808 14.3967 18.2808C13.8824 18.2827 13.3691 18.2369 12.8633 18.1442C12.4256 18.069 12.0012 17.9306 11.6033 17.7333V15.5417C12.3564 16.1828 13.3119 16.537 14.3008 16.5417C14.5786 16.5417 14.8208 16.5167 15.0275 16.4667C15.2347 16.4167 15.4078 16.3472 15.5467 16.2583C15.685 16.1683 15.7886 16.0628 15.8575 15.9417C15.9342 15.8001 15.9692 15.6396 15.9583 15.479C15.9474 15.3183 15.891 15.1641 15.7958 15.0342C15.6723 14.8701 15.5208 14.7291 15.3483 14.6175C15.1347 14.4759 14.9098 14.3522 14.6758 14.2475C14.3985 14.1209 14.1187 13.9998 13.8367 13.8842C13.0717 13.5647 12.5014 13.1744 12.1258 12.7133C11.7503 12.2522 11.5625 11.6953 11.5625 11.0425C11.5625 10.5314 11.665 10.0919 11.87 9.72417C12.0744 9.35639 12.3533 9.05389 12.7067 8.81667C13.0804 8.57022 13.4953 8.3927 13.9317 8.2925C14.4149 8.17827 14.9101 8.12204 15.4067 8.125ZM2.8125 8.28167H10.7817V10.0867H7.92167V18.125H5.6575V10.0867H2.8125V8.28167Z" fill="#4B5563"/>
</g>
<defs>
<clipPath id="clip0_27_365">
<rect width="20" height="20" fill="white"/>
</clipPath>
</defs>
</svg>
